<svg width="300" height="183" viewBox="0 0 300 183" fill="none" xmlns="http://www.w3.org/2000/svg">
<path fill-rule="evenodd" clip-rule="evenodd" d="M268.163 84.399C268.163 85.4372 268.145 86.4711 268.107 87.5003C286.737 94.4738 300 112.44 300 133.504C300 160.624 278.015 182.609 250.895 182.609H49.1049C21.985 182.609 0 160.624 0 133.504C0 106.384 21.985 84.399 49.1049 84.399H52.0445C52.042 84.1947 52.0408 83.9901 52.0408 83.7852C52.0408 56.6653 73.9697 34.6803 101.02 34.6803C105.73 34.6803 110.285 35.3467 114.595 36.5907C129.775 14.4891 155.19 0 183.98 0C230.473 0 268.163 37.7867 268.163 84.399Z" fill="url(#paint0_linear_3_39)"/>
<defs>
<linearGradient id="paint0_linear_3_39" x1="150" y1="0" x2="150" y2="182.609" gradientUnits="userSpaceOnUse">
<stop stop-color="#20C0FF"/>
<stop offset="1" stop-color="#007AEB"/>
</linearGradient>
</defs>
</svg>
