<svg width="302" height="246" viewBox="0 0 302 246" fill="none" xmlns="http://www.w3.org/2000/svg">
<path d="M167.421 132.878C167.421 245.237 144.45 234.462 69.0217 234.462C32.453 234.462 1 173.375 1 102.623C1 -17.5609 3.95285 1.03917 99.3997 1.03917C149.798 1.03917 167.421 62.126 167.421 132.878Z" fill="#FF8F16"/>
<g filter="url(#filter0_d_58_11)">
<path d="M1 69.2C1 58.1543 9.95431 49.2 21 49.2H281C292.046 49.2 301 58.1543 301 69.2V226C301 237.046 292.046 246 281 246H21C9.9543 246 1 237.046 1 226V69.2Z" fill="#FEAB51"/>
<path d="M1.5 69.2C1.5 58.4305 10.2305 49.7 21 49.7H281C291.77 49.7 300.5 58.4305 300.5 69.2V226C300.5 236.77 291.77 245.5 281 245.5H21C10.2304 245.5 1.5 236.77 1.5 226V69.2Z" stroke="black"/>
</g>
<defs>
<filter id="filter0_d_58_11" x="0" y="46.2" width="302" height="199.8" filterUnits="userSpaceOnUse" color-interpolation-filters="sRGB">
<feFlood flood-opacity="0" result="BackgroundImageFix"/>
<feColorMatrix in="SourceAlpha" type="matrix" values="0 0 0 0 0 0 0 0 0 0 0 0 0 0 0 0 0 0 127 0" result="hardAlpha"/>
<feOffset dy="-2"/>
<feGaussianBlur stdDeviation="0.5"/>
<feComposite in2="hardAlpha" operator="out"/>
<feColorMatrix type="matrix" values="0 0 0 0 0 0 0 0 0 0 0 0 0 0 0 0 0 0 0.1 0"/>
<feBlend mode="normal" in2="BackgroundImageFix" result="effect1_dropShadow_58_11"/>
<feBlend mode="normal" in="SourceGraphic" in2="effect1_dropShadow_58_11" result="shape"/>
</filter>
</defs>
</svg>
