<svg width="300" height="300" viewBox="0 0 300 300" fill="none" xmlns="http://www.w3.org/2000/svg">
<circle cx="150" cy="150" r="148.5" fill="#FEAB51" stroke="black" stroke-width="3"/>
<mask id="path-2-inside-1_65_18" fill="white">
<path fill-rule="evenodd" clip-rule="evenodd" d="M220 86.7253V210.117C220 210.352 219.993 210.585 219.979 210.817C219.993 211.21 220 211.604 220 212C220 229.673 205.673 244 188 244C170.327 244 156 229.673 156 212C156 194.327 170.327 180 188 180C191.492 180 194.854 180.559 198 181.594V78C198 77.4472 198.041 76.9039 198.119 76.373L126 87.6553V91V223.117C126 223.731 125.951 224.337 125.855 224.931C125.951 225.941 126 226.965 126 228C126 245.673 111.673 260 94 260C76.3269 260 62 245.673 62 228C62 210.327 76.3269 196 94 196C97.4922 196 100.854 196.559 104 197.593V91C104 90.7 104.012 90.4028 104.036 90.1089L104.139 64.1555C104.141 63.8031 104.165 63.4562 104.21 63.1162C103.534 58.755 106.518 54.6689 110.879 53.9865L203.332 39.5233C204.166 39.2245 205.064 39.0601 206 39.0563L211.819 39.0329C216.238 39.0151 219.834 42.5824 219.851 47.0006L219.973 77.2246C219.991 77.4808 220 77.7393 220 78V83.9106L220.01 86.2959C220.01 86.4399 220.007 86.5831 220 86.7253Z"/>
</mask>
<path fill-rule="evenodd" clip-rule="evenodd" d="M220 86.7253V210.117C220 210.352 219.993 210.585 219.979 210.817C219.993 211.21 220 211.604 220 212C220 229.673 205.673 244 188 244C170.327 244 156 229.673 156 212C156 194.327 170.327 180 188 180C191.492 180 194.854 180.559 198 181.594V78C198 77.4472 198.041 76.9039 198.119 76.373L126 87.6553V91V223.117C126 223.731 125.951 224.337 125.855 224.931C125.951 225.941 126 226.965 126 228C126 245.673 111.673 260 94 260C76.3269 260 62 245.673 62 228C62 210.327 76.3269 196 94 196C97.4922 196 100.854 196.559 104 197.593V91C104 90.7 104.012 90.4028 104.036 90.1089L104.139 64.1555C104.141 63.8031 104.165 63.4562 104.21 63.1162C103.534 58.755 106.518 54.6689 110.879 53.9865L203.332 39.5233C204.166 39.2245 205.064 39.0601 206 39.0563L211.819 39.0329C216.238 39.0151 219.834 42.5824 219.851 47.0006L219.973 77.2246C219.991 77.4808 220 77.7393 220 78V83.9106L220.01 86.2959C220.01 86.4399 220.007 86.5831 220 86.7253Z" fill="#FE4F44"/>
<path d="M220 86.7253L219.001 86.6765L219 86.7009V86.7253H220ZM219.979 210.817L218.98 210.756L218.977 210.804L218.979 210.853L219.979 210.817ZM198 181.594L197.688 182.544L199 182.975V181.594H198ZM198.119 76.373L199.109 76.5197L199.308 75.1749L197.965 75.385L198.119 76.373ZM126 87.6553L125.845 86.6674L125 86.7996V87.6553H126ZM125.855 224.931L124.868 224.772L124.847 224.898L124.859 225.026L125.855 224.931ZM104 197.593L103.688 198.543L105 198.975V197.593H104ZM104.036 90.1089L105.032 90.1888L105.035 90.1509L105.036 90.1129L104.036 90.1089ZM104.139 64.1555L103.139 64.1515V64.1515L104.139 64.1555ZM104.21 63.1162L105.202 63.2488L105.221 63.1056L105.199 62.9629L104.21 63.1162ZM110.879 53.9865L111.034 54.9745L110.879 53.9865ZM203.332 39.5233L203.487 40.5113L203.58 40.4966L203.67 40.4647L203.332 39.5233ZM206 39.0563L206.004 40.0563L206 39.0563ZM211.819 39.0329L211.823 40.0329L211.819 39.0329ZM219.851 47.0006L218.852 47.0047V47.0047L219.851 47.0006ZM219.973 77.2246L218.973 77.2287L218.973 77.2614L218.976 77.2941L219.973 77.2246ZM220 83.9106H219L219 83.9146L220 83.9106ZM220.01 86.2959L219.01 86.2999L220.01 86.2959ZM219 86.7253V210.117H221V86.7253H219ZM219 210.117C219 210.331 218.993 210.544 218.98 210.756L220.977 210.878C220.992 210.626 221 210.372 221 210.117H219ZM218.979 210.853C218.993 211.234 219 211.616 219 212H221C221 211.592 220.993 211.185 220.978 210.781L218.979 210.853ZM219 212C219 229.121 205.121 243 188 243V245C206.225 245 221 230.225 221 212H219ZM188 243C170.879 243 157 229.121 157 212H155C155 230.225 169.775 245 188 245V243ZM157 212C157 194.879 170.879 181 188 181V179C169.775 179 155 193.775 155 212H157ZM188 181C191.385 181 194.641 181.542 197.688 182.544L198.312 180.644C195.067 179.577 191.6 179 188 179V181ZM199 181.594V78H197V181.594H199ZM199 78C199 77.4964 199.037 77.0022 199.109 76.5197L197.13 76.2264C197.044 76.8057 197 77.3979 197 78H199ZM197.965 75.385L125.845 86.6674L126.155 88.6433L198.274 77.361L197.965 75.385ZM125 87.6553V91H127V87.6553H125ZM125 91V223.117H127V91H125ZM125 223.117C125 223.677 124.955 224.23 124.868 224.772L126.842 225.09C126.946 224.444 127 223.785 127 223.117H125ZM124.859 225.026C124.952 226.004 125 226.996 125 228H127C127 226.933 126.949 225.878 126.85 224.836L124.859 225.026ZM125 228C125 245.121 111.121 259 94 259V261C112.225 261 127 246.225 127 228H125ZM94 259C76.8792 259 63 245.121 63 228H61C61 246.225 75.7746 261 94 261V259ZM63 228C63 210.879 76.8792 197 94 197V195C75.7746 195 61 209.775 61 228H63ZM94 197C97.3848 197 100.641 197.542 103.688 198.543L104.312 196.643C101.067 195.577 97.5996 195 94 195V197ZM105 197.593V91H103V197.593H105ZM105 91C105 90.7267 105.011 90.4562 105.032 90.1888L103.039 90.029C103.013 90.3495 103 90.6733 103 91H105ZM105.036 90.1129L105.139 64.1595L103.139 64.1515L103.036 90.1049L105.036 90.1129ZM105.139 64.1595C105.141 63.8502 105.162 63.5463 105.202 63.2488L103.219 62.9836C103.168 63.3662 103.141 63.756 103.139 64.1515L105.139 64.1595ZM105.199 62.9629C104.607 59.1469 107.218 55.5716 111.034 54.9745L110.725 52.9985C105.818 53.7662 102.461 58.3631 103.222 63.2694L105.199 62.9629ZM111.034 54.9745L203.487 40.5113L203.178 38.5353L110.725 52.9985L111.034 54.9745ZM203.67 40.4647C204.398 40.2037 205.183 40.0596 206.004 40.0563L205.996 38.0563C204.945 38.0606 203.934 38.2453 202.995 38.5819L203.67 40.4647ZM206.004 40.0563L211.823 40.0329L211.815 38.0329L205.996 38.0563L206.004 40.0563ZM211.823 40.0329C215.689 40.0173 218.836 43.1387 218.852 47.0047L220.851 46.9966C220.831 42.0261 216.786 38.0129 211.815 38.0329L211.823 40.0329ZM218.852 47.0047L218.973 77.2287L220.973 77.2206L220.851 46.9966L218.852 47.0047ZM218.976 77.2941C218.992 77.5271 219 77.7625 219 78H221C221 77.7161 220.99 77.4344 220.971 77.1552L218.976 77.2941ZM219 78V83.9106H221V78H219ZM219 83.9146L219.01 86.2999L221.01 86.2919L221 83.9066L219 83.9146ZM219.01 86.2999C219.01 86.4263 219.007 86.5519 219.001 86.6765L220.999 86.7741C221.007 86.6143 221.01 86.4536 221.01 86.2919L219.01 86.2999Z" fill="black" mask="url(#path-2-inside-1_65_18)"/>
</svg>
