<svg width="273" height="342" viewBox="0 0 273 342" fill="none" xmlns="http://www.w3.org/2000/svg">
<mask id="path-1-inside-1_66_36" fill="white">
<path fill-rule="evenodd" clip-rule="evenodd" d="M0 28.4146C0 12.9506 12.536 0.414612 28 0.414612H167.51C175.461 0.414612 182.638 3.72868 187.735 9.05083C188.073 9.34792 188.403 9.65773 188.726 9.98027L244.02 65.2743C244.515 65.7695 244.98 66.2834 245.416 66.8136C251.297 71.9465 255.013 79.4981 255.013 87.9177V313.283C255.013 328.747 242.477 341.283 227.013 341.283H28C12.536 341.283 0 328.747 0 313.283V253.779V87.9177V28.4146Z"/>
</mask>
<path fill-rule="evenodd" clip-rule="evenodd" d="M0 28.4146C0 12.9506 12.536 0.414612 28 0.414612H167.51C175.461 0.414612 182.638 3.72868 187.735 9.05083C188.073 9.34792 188.403 9.65773 188.726 9.98027L244.02 65.2743C244.515 65.7695 244.98 66.2834 245.416 66.8136C251.297 71.9465 255.013 79.4981 255.013 87.9177V313.283C255.013 328.747 242.477 341.283 227.013 341.283H28C12.536 341.283 0 328.747 0 313.283V253.779V87.9177V28.4146Z" fill="#FEAB51"/>
<path d="M187.735 9.05083L185.568 11.1258L185.657 11.2185L185.754 11.3033L187.735 9.05083ZM188.726 9.98027L190.847 7.85895L188.726 9.98027ZM244.02 65.2743L241.899 67.3956L244.02 65.2743ZM245.416 66.8136L243.097 68.717L243.255 68.9098L243.443 69.0739L245.416 66.8136ZM28 -2.58539C10.8792 -2.58539 -3 11.2938 -3 28.4146H3C3 14.6075 14.1929 3.41461 28 3.41461V-2.58539ZM167.51 -2.58539H28V3.41461H167.51V-2.58539ZM189.902 6.97585C184.263 1.08735 176.313 -2.58539 167.51 -2.58539V3.41461C174.61 3.41461 181.014 6.37001 185.568 11.1258L189.902 6.97585ZM185.754 11.3033C186.043 11.5582 186.327 11.8243 186.605 12.1016L190.847 7.85895C190.479 7.49115 190.102 7.13761 189.717 6.79835L185.754 11.3033ZM186.605 12.1016L241.899 67.3956L246.141 63.153L190.847 7.85895L186.605 12.1016ZM241.899 67.3956C242.324 67.8214 242.724 68.2625 243.097 68.717L247.734 64.9102C247.237 64.3043 246.706 63.7177 246.141 63.153L241.899 67.3956ZM258.013 87.9177C258.013 78.5955 253.895 70.2317 247.388 64.5533L243.443 69.0739C248.7 73.6613 252.013 80.4007 252.013 87.9177H258.013ZM258.013 313.283V87.9177H252.013V313.283H258.013ZM227.013 344.283C244.134 344.283 258.013 330.403 258.013 313.283H252.013C252.013 327.09 240.821 338.283 227.013 338.283V344.283ZM28 344.283H227.013V338.283H28V344.283ZM-3 313.283C-3 330.403 10.8791 344.283 28 344.283V338.283C14.1929 338.283 3 327.09 3 313.283H-3ZM-3 253.779V313.283H3V253.779H-3ZM-3 87.9177V253.779H3V87.9177H-3ZM-3 28.4146V87.9177H3V28.4146H-3Z" fill="black" mask="url(#path-1-inside-1_66_36)"/>
<path d="M77.5 162L73.7 217.5C73.6333 218.5 73.2667 219 72.6 219H67.1C63.3667 219 60.7 218.267 59.1 216.8C57.5 215.333 56.7 213.233 56.7 210.5C56.7 209.5 56.7333 208 56.8 206C56.9333 204 57.1 201.667 57.3 199C57.5 196.267 57.7 193.333 57.9 190.2C58.1667 187 58.4333 183.8 58.7 180.6C58.9667 177.333 59.2 174.1 59.4 170.9C59.6667 167.7 59.9 164.733 60.1 162H44.1C43.3667 162 43 161.533 43 160.6L43.3 155C43.3667 154.133 43.5 153.3 43.7 152.5C43.9667 151.633 44.3667 150.867 44.9 150.2C45.4333 149.533 46.1 149 46.9 148.6C47.7667 148.2 48.8 148 50 148H94.7C95.1 148 95.4667 148.1 95.8 148.3C96.1333 148.5 96.3 148.867 96.3 149.4L95.9 155.3C95.7667 157.3 95.2 158.933 94.2 160.2C93.2667 161.4 91.3 162 88.3 162H77.5ZM154.795 216.9C154.795 217.833 154.228 218.433 153.095 218.7C152.028 218.967 150.495 219.1 148.495 219.1C145.961 219.1 143.795 218.967 141.995 218.7C140.195 218.433 138.661 218.033 137.395 217.5C136.195 216.967 135.195 216.333 134.395 215.6C133.595 214.8 132.961 213.867 132.495 212.8L124.095 195.3C121.761 198.9 119.461 202.533 117.195 206.2C114.928 209.8 112.461 213.633 109.795 217.7C109.661 217.9 109.161 218.333 108.295 219C107.495 219.667 106.628 220 105.695 220C104.761 220 103.695 219.5 102.495 218.5C101.361 217.433 100.295 216.2 99.2945 214.8C98.2945 213.333 97.4612 211.8 96.7945 210.2C96.1279 208.533 95.7945 207.1 95.7945 205.9C95.7945 204.5 96.5279 202.833 97.9945 200.9C99.4612 198.9 101.295 196.867 103.495 194.8C105.695 192.667 108.061 190.6 110.595 188.6C113.195 186.6 115.628 184.833 117.895 183.3C115.161 178.633 112.595 174.333 110.195 170.4C107.795 166.4 105.728 162.9 103.995 159.9C102.261 156.9 100.895 154.5 99.8945 152.7C98.8945 150.9 98.3945 149.833 98.3945 149.5C98.3945 149.167 98.9612 148.833 100.095 148.5C101.228 148.167 102.861 148 104.995 148C107.595 148 109.861 148.167 111.795 148.5C113.795 148.833 115.495 149.4 116.895 150.2C118.361 151 119.628 152.067 120.695 153.4C121.761 154.733 122.728 156.367 123.595 158.3L129.095 170.8C130.495 169 131.728 167.3 132.795 165.7C133.861 164.1 134.961 162.433 136.095 160.7C137.228 158.967 138.461 157.1 139.795 155.1C141.128 153.1 142.695 150.8 144.495 148.2C145.095 147.4 145.928 147 146.995 147C148.195 147 149.395 147.567 150.595 148.7C151.861 149.767 152.995 151.067 153.995 152.6C154.995 154.067 155.795 155.6 156.395 157.2C157.061 158.733 157.395 159.967 157.395 160.9C157.395 162.167 156.595 163.767 154.995 165.7C153.461 167.633 151.561 169.633 149.295 171.7C147.028 173.767 144.628 175.8 142.095 177.8C139.561 179.733 137.328 181.333 135.395 182.6C136.195 184.2 137.228 186.067 138.495 188.2C139.761 190.267 141.095 192.467 142.495 194.8C143.961 197.067 145.428 199.367 146.895 201.7C148.361 203.967 149.661 206.1 150.795 208.1C151.995 210.1 152.961 211.9 153.695 213.5C154.428 215.033 154.795 216.167 154.795 216.9ZM195.859 162L192.059 217.5C191.993 218.5 191.626 219 190.959 219H185.459C181.726 219 179.059 218.267 177.459 216.8C175.859 215.333 175.059 213.233 175.059 210.5C175.059 209.5 175.093 208 175.159 206C175.293 204 175.459 201.667 175.659 199C175.859 196.267 176.059 193.333 176.259 190.2C176.526 187 176.793 183.8 177.059 180.6C177.326 177.333 177.559 174.1 177.759 170.9C178.026 167.7 178.259 164.733 178.459 162H162.459C161.726 162 161.359 161.533 161.359 160.6L161.659 155C161.726 154.133 161.859 153.3 162.059 152.5C162.326 151.633 162.726 150.867 163.259 150.2C163.793 149.533 164.459 149 165.259 148.6C166.126 148.2 167.159 148 168.359 148H213.059C213.459 148 213.826 148.1 214.159 148.3C214.493 148.5 214.659 148.867 214.659 149.4L214.259 155.3C214.126 157.3 213.559 158.933 212.559 160.2C211.626 161.4 209.659 162 206.659 162H195.859Z" fill="black"/>
<path d="M168 86.9999L168 -2.28882e-05" stroke="black" stroke-width="2"/>
<path d="M169 86H255.304" stroke="black" stroke-width="2"/>
<path d="M18 241L238 241" stroke="black" stroke-width="4"/>
<path d="M18 126L238 126" stroke="black" stroke-width="4"/>
</svg>
