<svg width="362" height="240" viewBox="0 0 362 240" fill="none" xmlns="http://www.w3.org/2000/svg">
<g filter="url(#filter0_d_67_48)">
<path d="M1 23C1 11.9543 9.95431 3 21 3H341C352.046 3 361 11.9543 361 23V219.16C361 230.206 352.046 239.16 341 239.16H21C9.95432 239.16 1 230.206 1 219.16V23Z" fill="#FEAB51"/>
<path d="M2.5 23C2.5 12.7827 10.7827 4.5 21 4.5H341C351.217 4.5 359.5 12.7827 359.5 23V219.16C359.5 229.377 351.217 237.66 341 237.66H21C10.7827 237.66 2.5 229.377 2.5 219.16V23Z" stroke="black" stroke-width="3"/>
</g>
<path d="M242.315 115.667C246.039 117.772 246.039 123.137 242.315 125.243L152.507 176.013C148.84 178.086 144.3 175.437 144.3 171.225V69.6843C144.3 65.4726 148.84 62.8237 152.507 64.8964L242.315 115.667Z" fill="#FE4F44" stroke="black"/>
<path d="M21.4 34.2C21.4 30.8863 24.0863 28.2 27.4 28.2H47.8C51.1137 28.2 53.8 30.8863 53.8 34.2V54.6C53.8 57.9137 51.1137 60.6 47.8 60.6H27.4C24.0863 60.6 21.4 57.9137 21.4 54.6V34.2Z" fill="black"/>
<path d="M21.4 34.2C21.4 30.8863 24.0863 28.2 27.4 28.2H47.8C51.1137 28.2 53.8 30.8863 53.8 34.2V54.6C53.8 57.9137 51.1137 60.6 47.8 60.6H27.4C24.0863 60.6 21.4 57.9137 21.4 54.6V34.2Z" fill="black"/>
<path d="M21.4 34.2C21.4 30.8863 24.0863 28.2 27.4 28.2H47.8C51.1137 28.2 53.8 30.8863 53.8 34.2V54.6C53.8 57.9137 51.1137 60.6 47.8 60.6H27.4C24.0863 60.6 21.4 57.9137 21.4 54.6V34.2Z" fill="black"/>
<path d="M21.4 34.2C21.4 30.8863 24.0863 28.2 27.4 28.2H47.8C51.1137 28.2 53.8 30.8863 53.8 34.2V54.6C53.8 57.9137 51.1137 60.6 47.8 60.6H27.4C24.0863 60.6 21.4 57.9137 21.4 54.6V34.2Z" fill="black"/>
<path d="M21.4 34.2C21.4 30.8863 24.0863 28.2 27.4 28.2H47.8C51.1137 28.2 53.8 30.8863 53.8 34.2V54.6C53.8 57.9137 51.1137 60.6 47.8 60.6H27.4C24.0863 60.6 21.4 57.9137 21.4 54.6V34.2Z" fill="black"/>
<path d="M21.4 34.2C21.4 30.8863 24.0863 28.2 27.4 28.2H47.8C51.1137 28.2 53.8 30.8863 53.8 34.2V54.6C53.8 57.9137 51.1137 60.6 47.8 60.6H27.4C24.0863 60.6 21.4 57.9137 21.4 54.6V34.2Z" fill="black"/>
<path d="M21.4 34.2C21.4 30.8863 24.0863 28.2 27.4 28.2H47.8C51.1137 28.2 53.8 30.8863 53.8 34.2V54.6C53.8 57.9137 51.1137 60.6 47.8 60.6H27.4C24.0863 60.6 21.4 57.9137 21.4 54.6V34.2Z" fill="black"/>
<path d="M21.4 34.2C21.4 30.8863 24.0863 28.2 27.4 28.2H47.8C51.1137 28.2 53.8 30.8863 53.8 34.2V54.6C53.8 57.9137 51.1137 60.6 47.8 60.6H27.4C24.0863 60.6 21.4 57.9137 21.4 54.6V34.2Z" fill="black"/>
<path d="M21.4 34.2C21.4 30.8863 24.0863 28.2 27.4 28.2H47.8C51.1137 28.2 53.8 30.8863 53.8 34.2V54.6C53.8 57.9137 51.1137 60.6 47.8 60.6H27.4C24.0863 60.6 21.4 57.9137 21.4 54.6V34.2Z" fill="black"/>
<path d="M21.4 34.2C21.4 30.8863 24.0863 28.2 27.4 28.2H47.8C51.1137 28.2 53.8 30.8863 53.8 34.2V54.6C53.8 57.9137 51.1137 60.6 47.8 60.6H27.4C24.0863 60.6 21.4 57.9137 21.4 54.6V34.2Z" fill="black"/>
<path d="M21.4 34.2C21.4 30.8863 24.0863 28.2 27.4 28.2H47.8C51.1137 28.2 53.8 30.8863 53.8 34.2V54.6C53.8 57.9137 51.1137 60.6 47.8 60.6H27.4C24.0863 60.6 21.4 57.9137 21.4 54.6V34.2Z" fill="black"/>
<path d="M21.4 34.2C21.4 30.8863 24.0863 28.2 27.4 28.2H47.8C51.1137 28.2 53.8 30.8863 53.8 34.2V54.6C53.8 57.9137 51.1137 60.6 47.8 60.6H27.4C24.0863 60.6 21.4 57.9137 21.4 54.6V34.2Z" fill="black"/>
<path d="M21.4 84.6C21.4 81.2863 24.0863 78.6 27.4 78.6H47.8C51.1137 78.6 53.8 81.2863 53.8 84.6V105C53.8 108.314 51.1137 111 47.8 111H27.4C24.0863 111 21.4 108.314 21.4 105V84.6Z" fill="black"/>
<path d="M21.4 84.6C21.4 81.2863 24.0863 78.6 27.4 78.6H47.8C51.1137 78.6 53.8 81.2863 53.8 84.6V105C53.8 108.314 51.1137 111 47.8 111H27.4C24.0863 111 21.4 108.314 21.4 105V84.6Z" fill="black"/>
<path d="M21.4 84.6C21.4 81.2863 24.0863 78.6 27.4 78.6H47.8C51.1137 78.6 53.8 81.2863 53.8 84.6V105C53.8 108.314 51.1137 111 47.8 111H27.4C24.0863 111 21.4 108.314 21.4 105V84.6Z" fill="black"/>
<path d="M21.4 84.6C21.4 81.2863 24.0863 78.6 27.4 78.6H47.8C51.1137 78.6 53.8 81.2863 53.8 84.6V105C53.8 108.314 51.1137 111 47.8 111H27.4C24.0863 111 21.4 108.314 21.4 105V84.6Z" fill="black"/>
<path d="M21.4 84.6C21.4 81.2863 24.0863 78.6 27.4 78.6H47.8C51.1137 78.6 53.8 81.2863 53.8 84.6V105C53.8 108.314 51.1137 111 47.8 111H27.4C24.0863 111 21.4 108.314 21.4 105V84.6Z" fill="black"/>
<path d="M21.4 84.6C21.4 81.2863 24.0863 78.6 27.4 78.6H47.8C51.1137 78.6 53.8 81.2863 53.8 84.6V105C53.8 108.314 51.1137 111 47.8 111H27.4C24.0863 111 21.4 108.314 21.4 105V84.6Z" fill="black"/>
<path d="M21.4 84.6C21.4 81.2863 24.0863 78.6 27.4 78.6H47.8C51.1137 78.6 53.8 81.2863 53.8 84.6V105C53.8 108.314 51.1137 111 47.8 111H27.4C24.0863 111 21.4 108.314 21.4 105V84.6Z" fill="black"/>
<path d="M21.4 84.6C21.4 81.2863 24.0863 78.6 27.4 78.6H47.8C51.1137 78.6 53.8 81.2863 53.8 84.6V105C53.8 108.314 51.1137 111 47.8 111H27.4C24.0863 111 21.4 108.314 21.4 105V84.6Z" fill="black"/>
<path d="M21.4 84.6C21.4 81.2863 24.0863 78.6 27.4 78.6H47.8C51.1137 78.6 53.8 81.2863 53.8 84.6V105C53.8 108.314 51.1137 111 47.8 111H27.4C24.0863 111 21.4 108.314 21.4 105V84.6Z" fill="black"/>
<path d="M21.4 84.6C21.4 81.2863 24.0863 78.6 27.4 78.6H47.8C51.1137 78.6 53.8 81.2863 53.8 84.6V105C53.8 108.314 51.1137 111 47.8 111H27.4C24.0863 111 21.4 108.314 21.4 105V84.6Z" fill="black"/>
<path d="M21.4 84.6C21.4 81.2863 24.0863 78.6 27.4 78.6H47.8C51.1137 78.6 53.8 81.2863 53.8 84.6V105C53.8 108.314 51.1137 111 47.8 111H27.4C24.0863 111 21.4 108.314 21.4 105V84.6Z" fill="black"/>
<path d="M21.4 84.6C21.4 81.2863 24.0863 78.6 27.4 78.6H47.8C51.1137 78.6 53.8 81.2863 53.8 84.6V105C53.8 108.314 51.1137 111 47.8 111H27.4C24.0863 111 21.4 108.314 21.4 105V84.6Z" fill="black"/>
<path d="M21.4 185.4C21.4 182.086 24.0863 179.4 27.4 179.4H47.8C51.1137 179.4 53.8 182.086 53.8 185.4V205.8C53.8 209.114 51.1137 211.8 47.8 211.8H27.4C24.0863 211.8 21.4 209.114 21.4 205.8V185.4Z" fill="black"/>
<path d="M21.4 185.4C21.4 182.086 24.0863 179.4 27.4 179.4H47.8C51.1137 179.4 53.8 182.086 53.8 185.4V205.8C53.8 209.114 51.1137 211.8 47.8 211.8H27.4C24.0863 211.8 21.4 209.114 21.4 205.8V185.4Z" fill="black"/>
<path d="M21.4 185.4C21.4 182.086 24.0863 179.4 27.4 179.4H47.8C51.1137 179.4 53.8 182.086 53.8 185.4V205.8C53.8 209.114 51.1137 211.8 47.8 211.8H27.4C24.0863 211.8 21.4 209.114 21.4 205.8V185.4Z" fill="black"/>
<path d="M21.4 185.4C21.4 182.086 24.0863 179.4 27.4 179.4H47.8C51.1137 179.4 53.8 182.086 53.8 185.4V205.8C53.8 209.114 51.1137 211.8 47.8 211.8H27.4C24.0863 211.8 21.4 209.114 21.4 205.8V185.4Z" fill="black"/>
<path d="M21.4 185.4C21.4 182.086 24.0863 179.4 27.4 179.4H47.8C51.1137 179.4 53.8 182.086 53.8 185.4V205.8C53.8 209.114 51.1137 211.8 47.8 211.8H27.4C24.0863 211.8 21.4 209.114 21.4 205.8V185.4Z" fill="black"/>
<path d="M21.4 185.4C21.4 182.086 24.0863 179.4 27.4 179.4H47.8C51.1137 179.4 53.8 182.086 53.8 185.4V205.8C53.8 209.114 51.1137 211.8 47.8 211.8H27.4C24.0863 211.8 21.4 209.114 21.4 205.8V185.4Z" fill="black"/>
<path d="M21.4 185.4C21.4 182.086 24.0863 179.4 27.4 179.4H47.8C51.1137 179.4 53.8 182.086 53.8 185.4V205.8C53.8 209.114 51.1137 211.8 47.8 211.8H27.4C24.0863 211.8 21.4 209.114 21.4 205.8V185.4Z" fill="black"/>
<path d="M21.4 185.4C21.4 182.086 24.0863 179.4 27.4 179.4H47.8C51.1137 179.4 53.8 182.086 53.8 185.4V205.8C53.8 209.114 51.1137 211.8 47.8 211.8H27.4C24.0863 211.8 21.4 209.114 21.4 205.8V185.4Z" fill="black"/>
<path d="M21.4 185.4C21.4 182.086 24.0863 179.4 27.4 179.4H47.8C51.1137 179.4 53.8 182.086 53.8 185.4V205.8C53.8 209.114 51.1137 211.8 47.8 211.8H27.4C24.0863 211.8 21.4 209.114 21.4 205.8V185.4Z" fill="black"/>
<path d="M21.4 185.4C21.4 182.086 24.0863 179.4 27.4 179.4H47.8C51.1137 179.4 53.8 182.086 53.8 185.4V205.8C53.8 209.114 51.1137 211.8 47.8 211.8H27.4C24.0863 211.8 21.4 209.114 21.4 205.8V185.4Z" fill="black"/>
<path d="M21.4 185.4C21.4 182.086 24.0863 179.4 27.4 179.4H47.8C51.1137 179.4 53.8 182.086 53.8 185.4V205.8C53.8 209.114 51.1137 211.8 47.8 211.8H27.4C24.0863 211.8 21.4 209.114 21.4 205.8V185.4Z" fill="black"/>
<path d="M21.4 185.4C21.4 182.086 24.0863 179.4 27.4 179.4H47.8C51.1137 179.4 53.8 182.086 53.8 185.4V205.8C53.8 209.114 51.1137 211.8 47.8 211.8H27.4C24.0863 211.8 21.4 209.114 21.4 205.8V185.4Z" fill="black"/>
<path d="M21.4 135C21.4 131.686 24.0863 129 27.4 129H47.8C51.1137 129 53.8 131.686 53.8 135V155.4C53.8 158.714 51.1137 161.4 47.8 161.4H27.4C24.0863 161.4 21.4 158.714 21.4 155.4V135Z" fill="black"/>
<path d="M21.4 135C21.4 131.686 24.0863 129 27.4 129H47.8C51.1137 129 53.8 131.686 53.8 135V155.4C53.8 158.714 51.1137 161.4 47.8 161.4H27.4C24.0863 161.4 21.4 158.714 21.4 155.4V135Z" fill="black"/>
<path d="M21.4 135C21.4 131.686 24.0863 129 27.4 129H47.8C51.1137 129 53.8 131.686 53.8 135V155.4C53.8 158.714 51.1137 161.4 47.8 161.4H27.4C24.0863 161.4 21.4 158.714 21.4 155.4V135Z" fill="black"/>
<path d="M21.4 135C21.4 131.686 24.0863 129 27.4 129H47.8C51.1137 129 53.8 131.686 53.8 135V155.4C53.8 158.714 51.1137 161.4 47.8 161.4H27.4C24.0863 161.4 21.4 158.714 21.4 155.4V135Z" fill="black"/>
<path d="M21.4 135C21.4 131.686 24.0863 129 27.4 129H47.8C51.1137 129 53.8 131.686 53.8 135V155.4C53.8 158.714 51.1137 161.4 47.8 161.4H27.4C24.0863 161.4 21.4 158.714 21.4 155.4V135Z" fill="black"/>
<path d="M21.4 135C21.4 131.686 24.0863 129 27.4 129H47.8C51.1137 129 53.8 131.686 53.8 135V155.4C53.8 158.714 51.1137 161.4 47.8 161.4H27.4C24.0863 161.4 21.4 158.714 21.4 155.4V135Z" fill="black"/>
<path d="M21.4 135C21.4 131.686 24.0863 129 27.4 129H47.8C51.1137 129 53.8 131.686 53.8 135V155.4C53.8 158.714 51.1137 161.4 47.8 161.4H27.4C24.0863 161.4 21.4 158.714 21.4 155.4V135Z" fill="black"/>
<path d="M21.4 135C21.4 131.686 24.0863 129 27.4 129H47.8C51.1137 129 53.8 131.686 53.8 135V155.4C53.8 158.714 51.1137 161.4 47.8 161.4H27.4C24.0863 161.4 21.4 158.714 21.4 155.4V135Z" fill="black"/>
<path d="M21.4 135C21.4 131.686 24.0863 129 27.4 129H47.8C51.1137 129 53.8 131.686 53.8 135V155.4C53.8 158.714 51.1137 161.4 47.8 161.4H27.4C24.0863 161.4 21.4 158.714 21.4 155.4V135Z" fill="black"/>
<path d="M21.4 135C21.4 131.686 24.0863 129 27.4 129H47.8C51.1137 129 53.8 131.686 53.8 135V155.4C53.8 158.714 51.1137 161.4 47.8 161.4H27.4C24.0863 161.4 21.4 158.714 21.4 155.4V135Z" fill="black"/>
<path d="M21.4 135C21.4 131.686 24.0863 129 27.4 129H47.8C51.1137 129 53.8 131.686 53.8 135V155.4C53.8 158.714 51.1137 161.4 47.8 161.4H27.4C24.0863 161.4 21.4 158.714 21.4 155.4V135Z" fill="black"/>
<path d="M21.4 135C21.4 131.686 24.0863 129 27.4 129H47.8C51.1137 129 53.8 131.686 53.8 135V155.4C53.8 158.714 51.1137 161.4 47.8 161.4H27.4C24.0863 161.4 21.4 158.714 21.4 155.4V135Z" fill="black"/>
<path d="M307 34.2C307 30.8863 309.686 28.2 313 28.2H333.4C336.714 28.2 339.4 30.8863 339.4 34.2V54.6C339.4 57.9137 336.714 60.6 333.4 60.6H313C309.686 60.6 307 57.9137 307 54.6V34.2Z" fill="black"/>
<path d="M307 34.2C307 30.8863 309.686 28.2 313 28.2H333.4C336.714 28.2 339.4 30.8863 339.4 34.2V54.6C339.4 57.9137 336.714 60.6 333.4 60.6H313C309.686 60.6 307 57.9137 307 54.6V34.2Z" fill="black"/>
<path d="M307 34.2C307 30.8863 309.686 28.2 313 28.2H333.4C336.714 28.2 339.4 30.8863 339.4 34.2V54.6C339.4 57.9137 336.714 60.6 333.4 60.6H313C309.686 60.6 307 57.9137 307 54.6V34.2Z" fill="black"/>
<path d="M307 34.2C307 30.8863 309.686 28.2 313 28.2H333.4C336.714 28.2 339.4 30.8863 339.4 34.2V54.6C339.4 57.9137 336.714 60.6 333.4 60.6H313C309.686 60.6 307 57.9137 307 54.6V34.2Z" fill="black"/>
<path d="M307 34.2C307 30.8863 309.686 28.2 313 28.2H333.4C336.714 28.2 339.4 30.8863 339.4 34.2V54.6C339.4 57.9137 336.714 60.6 333.4 60.6H313C309.686 60.6 307 57.9137 307 54.6V34.2Z" fill="black"/>
<path d="M307 34.2C307 30.8863 309.686 28.2 313 28.2H333.4C336.714 28.2 339.4 30.8863 339.4 34.2V54.6C339.4 57.9137 336.714 60.6 333.4 60.6H313C309.686 60.6 307 57.9137 307 54.6V34.2Z" fill="black"/>
<path d="M307 34.2C307 30.8863 309.686 28.2 313 28.2H333.4C336.714 28.2 339.4 30.8863 339.4 34.2V54.6C339.4 57.9137 336.714 60.6 333.4 60.6H313C309.686 60.6 307 57.9137 307 54.6V34.2Z" fill="black"/>
<path d="M307 34.2C307 30.8863 309.686 28.2 313 28.2H333.4C336.714 28.2 339.4 30.8863 339.4 34.2V54.6C339.4 57.9137 336.714 60.6 333.4 60.6H313C309.686 60.6 307 57.9137 307 54.6V34.2Z" fill="black"/>
<path d="M307 34.2C307 30.8863 309.686 28.2 313 28.2H333.4C336.714 28.2 339.4 30.8863 339.4 34.2V54.6C339.4 57.9137 336.714 60.6 333.4 60.6H313C309.686 60.6 307 57.9137 307 54.6V34.2Z" fill="black"/>
<path d="M307 34.2C307 30.8863 309.686 28.2 313 28.2H333.4C336.714 28.2 339.4 30.8863 339.4 34.2V54.6C339.4 57.9137 336.714 60.6 333.4 60.6H313C309.686 60.6 307 57.9137 307 54.6V34.2Z" fill="black"/>
<path d="M307 34.2C307 30.8863 309.686 28.2 313 28.2H333.4C336.714 28.2 339.4 30.8863 339.4 34.2V54.6C339.4 57.9137 336.714 60.6 333.4 60.6H313C309.686 60.6 307 57.9137 307 54.6V34.2Z" fill="black"/>
<path d="M307 34.2C307 30.8863 309.686 28.2 313 28.2H333.4C336.714 28.2 339.4 30.8863 339.4 34.2V54.6C339.4 57.9137 336.714 60.6 333.4 60.6H313C309.686 60.6 307 57.9137 307 54.6V34.2Z" fill="black"/>
<path d="M307 84.6C307 81.2863 309.686 78.6 313 78.6H333.4C336.714 78.6 339.4 81.2863 339.4 84.6V105C339.4 108.314 336.714 111 333.4 111H313C309.686 111 307 108.314 307 105V84.6Z" fill="black"/>
<path d="M307 84.6C307 81.2863 309.686 78.6 313 78.6H333.4C336.714 78.6 339.4 81.2863 339.4 84.6V105C339.4 108.314 336.714 111 333.4 111H313C309.686 111 307 108.314 307 105V84.6Z" fill="black"/>
<path d="M307 84.6C307 81.2863 309.686 78.6 313 78.6H333.4C336.714 78.6 339.4 81.2863 339.4 84.6V105C339.4 108.314 336.714 111 333.4 111H313C309.686 111 307 108.314 307 105V84.6Z" fill="black"/>
<path d="M307 84.6C307 81.2863 309.686 78.6 313 78.6H333.4C336.714 78.6 339.4 81.2863 339.4 84.6V105C339.4 108.314 336.714 111 333.4 111H313C309.686 111 307 108.314 307 105V84.6Z" fill="black"/>
<path d="M307 84.6C307 81.2863 309.686 78.6 313 78.6H333.4C336.714 78.6 339.4 81.2863 339.4 84.6V105C339.4 108.314 336.714 111 333.4 111H313C309.686 111 307 108.314 307 105V84.6Z" fill="black"/>
<path d="M307 84.6C307 81.2863 309.686 78.6 313 78.6H333.4C336.714 78.6 339.4 81.2863 339.4 84.6V105C339.4 108.314 336.714 111 333.4 111H313C309.686 111 307 108.314 307 105V84.6Z" fill="black"/>
<path d="M307 84.6C307 81.2863 309.686 78.6 313 78.6H333.4C336.714 78.6 339.4 81.2863 339.4 84.6V105C339.4 108.314 336.714 111 333.4 111H313C309.686 111 307 108.314 307 105V84.6Z" fill="black"/>
<path d="M307 84.6C307 81.2863 309.686 78.6 313 78.6H333.4C336.714 78.6 339.4 81.2863 339.4 84.6V105C339.4 108.314 336.714 111 333.4 111H313C309.686 111 307 108.314 307 105V84.6Z" fill="black"/>
<path d="M307 84.6C307 81.2863 309.686 78.6 313 78.6H333.4C336.714 78.6 339.4 81.2863 339.4 84.6V105C339.4 108.314 336.714 111 333.4 111H313C309.686 111 307 108.314 307 105V84.6Z" fill="black"/>
<path d="M307 84.6C307 81.2863 309.686 78.6 313 78.6H333.4C336.714 78.6 339.4 81.2863 339.4 84.6V105C339.4 108.314 336.714 111 333.4 111H313C309.686 111 307 108.314 307 105V84.6Z" fill="black"/>
<path d="M307 84.6C307 81.2863 309.686 78.6 313 78.6H333.4C336.714 78.6 339.4 81.2863 339.4 84.6V105C339.4 108.314 336.714 111 333.4 111H313C309.686 111 307 108.314 307 105V84.6Z" fill="black"/>
<path d="M307 84.6C307 81.2863 309.686 78.6 313 78.6H333.4C336.714 78.6 339.4 81.2863 339.4 84.6V105C339.4 108.314 336.714 111 333.4 111H313C309.686 111 307 108.314 307 105V84.6Z" fill="black"/>
<path d="M307 185.4C307 182.086 309.686 179.4 313 179.4H333.4C336.714 179.4 339.4 182.086 339.4 185.4V205.8C339.4 209.114 336.714 211.8 333.4 211.8H313C309.686 211.8 307 209.114 307 205.8V185.4Z" fill="black"/>
<path d="M307 185.4C307 182.086 309.686 179.4 313 179.4H333.4C336.714 179.4 339.4 182.086 339.4 185.4V205.8C339.4 209.114 336.714 211.8 333.4 211.8H313C309.686 211.8 307 209.114 307 205.8V185.4Z" fill="black"/>
<path d="M307 185.4C307 182.086 309.686 179.4 313 179.4H333.4C336.714 179.4 339.4 182.086 339.4 185.4V205.8C339.4 209.114 336.714 211.8 333.4 211.8H313C309.686 211.8 307 209.114 307 205.8V185.4Z" fill="black"/>
<path d="M307 185.4C307 182.086 309.686 179.4 313 179.4H333.4C336.714 179.4 339.4 182.086 339.4 185.4V205.8C339.4 209.114 336.714 211.8 333.4 211.8H313C309.686 211.8 307 209.114 307 205.8V185.4Z" fill="black"/>
<path d="M307 185.4C307 182.086 309.686 179.4 313 179.4H333.4C336.714 179.4 339.4 182.086 339.4 185.4V205.8C339.4 209.114 336.714 211.8 333.4 211.8H313C309.686 211.8 307 209.114 307 205.8V185.4Z" fill="black"/>
<path d="M307 185.4C307 182.086 309.686 179.4 313 179.4H333.4C336.714 179.4 339.4 182.086 339.4 185.4V205.8C339.4 209.114 336.714 211.8 333.4 211.8H313C309.686 211.8 307 209.114 307 205.8V185.4Z" fill="black"/>
<path d="M307 185.4C307 182.086 309.686 179.4 313 179.4H333.4C336.714 179.4 339.4 182.086 339.4 185.4V205.8C339.4 209.114 336.714 211.8 333.4 211.8H313C309.686 211.8 307 209.114 307 205.8V185.4Z" fill="black"/>
<path d="M307 185.4C307 182.086 309.686 179.4 313 179.4H333.4C336.714 179.4 339.4 182.086 339.4 185.4V205.8C339.4 209.114 336.714 211.8 333.4 211.8H313C309.686 211.8 307 209.114 307 205.8V185.4Z" fill="black"/>
<path d="M307 185.4C307 182.086 309.686 179.4 313 179.4H333.4C336.714 179.4 339.4 182.086 339.4 185.4V205.8C339.4 209.114 336.714 211.8 333.4 211.8H313C309.686 211.8 307 209.114 307 205.8V185.4Z" fill="black"/>
<path d="M307 185.4C307 182.086 309.686 179.4 313 179.4H333.4C336.714 179.4 339.4 182.086 339.4 185.4V205.8C339.4 209.114 336.714 211.8 333.4 211.8H313C309.686 211.8 307 209.114 307 205.8V185.4Z" fill="black"/>
<path d="M307 185.4C307 182.086 309.686 179.4 313 179.4H333.4C336.714 179.4 339.4 182.086 339.4 185.4V205.8C339.4 209.114 336.714 211.8 333.4 211.8H313C309.686 211.8 307 209.114 307 205.8V185.4Z" fill="black"/>
<path d="M307 185.4C307 182.086 309.686 179.4 313 179.4H333.4C336.714 179.4 339.4 182.086 339.4 185.4V205.8C339.4 209.114 336.714 211.8 333.4 211.8H313C309.686 211.8 307 209.114 307 205.8V185.4Z" fill="black"/>
<path d="M307 135C307 131.686 309.686 129 313 129H333.4C336.714 129 339.4 131.686 339.4 135V155.4C339.4 158.714 336.714 161.4 333.4 161.4H313C309.686 161.4 307 158.714 307 155.4V135Z" fill="black"/>
<path d="M307 135C307 131.686 309.686 129 313 129H333.4C336.714 129 339.4 131.686 339.4 135V155.4C339.4 158.714 336.714 161.4 333.4 161.4H313C309.686 161.4 307 158.714 307 155.4V135Z" fill="black"/>
<path d="M307 135C307 131.686 309.686 129 313 129H333.4C336.714 129 339.4 131.686 339.4 135V155.4C339.4 158.714 336.714 161.4 333.4 161.4H313C309.686 161.4 307 158.714 307 155.4V135Z" fill="black"/>
<path d="M307 135C307 131.686 309.686 129 313 129H333.4C336.714 129 339.4 131.686 339.4 135V155.4C339.4 158.714 336.714 161.4 333.4 161.4H313C309.686 161.4 307 158.714 307 155.4V135Z" fill="black"/>
<path d="M307 135C307 131.686 309.686 129 313 129H333.4C336.714 129 339.4 131.686 339.4 135V155.4C339.4 158.714 336.714 161.4 333.4 161.4H313C309.686 161.4 307 158.714 307 155.4V135Z" fill="black"/>
<path d="M307 135C307 131.686 309.686 129 313 129H333.4C336.714 129 339.4 131.686 339.4 135V155.4C339.4 158.714 336.714 161.4 333.4 161.4H313C309.686 161.4 307 158.714 307 155.4V135Z" fill="black"/>
<path d="M307 135C307 131.686 309.686 129 313 129H333.4C336.714 129 339.4 131.686 339.4 135V155.4C339.4 158.714 336.714 161.4 333.4 161.4H313C309.686 161.4 307 158.714 307 155.4V135Z" fill="black"/>
<path d="M307 135C307 131.686 309.686 129 313 129H333.4C336.714 129 339.4 131.686 339.4 135V155.4C339.4 158.714 336.714 161.4 333.4 161.4H313C309.686 161.4 307 158.714 307 155.4V135Z" fill="black"/>
<path d="M307 135C307 131.686 309.686 129 313 129H333.4C336.714 129 339.4 131.686 339.4 135V155.4C339.4 158.714 336.714 161.4 333.4 161.4H313C309.686 161.4 307 158.714 307 155.4V135Z" fill="black"/>
<path d="M307 135C307 131.686 309.686 129 313 129H333.4C336.714 129 339.4 131.686 339.4 135V155.4C339.4 158.714 336.714 161.4 333.4 161.4H313C309.686 161.4 307 158.714 307 155.4V135Z" fill="black"/>
<path d="M307 135C307 131.686 309.686 129 313 129H333.4C336.714 129 339.4 131.686 339.4 135V155.4C339.4 158.714 336.714 161.4 333.4 161.4H313C309.686 161.4 307 158.714 307 155.4V135Z" fill="black"/>
<path d="M307 135C307 131.686 309.686 129 313 129H333.4C336.714 129 339.4 131.686 339.4 135V155.4C339.4 158.714 336.714 161.4 333.4 161.4H313C309.686 161.4 307 158.714 307 155.4V135Z" fill="black"/>
<defs>
<filter id="filter0_d_67_48" x="0" y="0" width="362" height="239.16" filterUnits="userSpaceOnUse" color-interpolation-filters="sRGB">
<feFlood flood-opacity="0" result="BackgroundImageFix"/>
<feColorMatrix in="SourceAlpha" type="matrix" values="0 0 0 0 0 0 0 0 0 0 0 0 0 0 0 0 0 0 127 0" result="hardAlpha"/>
<feOffset dy="-2"/>
<feGaussianBlur stdDeviation="0.5"/>
<feComposite in2="hardAlpha" operator="out"/>
<feColorMatrix type="matrix" values="0 0 0 0 0 0 0 0 0 0 0 0 0 0 0 0 0 0 0.1 0"/>
<feBlend mode="normal" in2="BackgroundImageFix" result="effect1_dropShadow_67_48"/>
<feBlend mode="normal" in="SourceGraphic" in2="effect1_dropShadow_67_48" result="shape"/>
</filter>
</defs>
</svg>
